<svg xmlns="http://www.w3.org/2000/svg" xmlns:xlink="http://www.w3.org/1999/xlink" width="250" zoomAndPan="magnify" viewBox="0 0 187.5 37.5" height="50" preserveAspectRatio="xMidYMid meet" version="1.0"><defs><g/><clipPath id="983528c8f6"><path d="M 0.988281 0 L 186.019531 0 L 186.019531 37.007812 L 0.988281 37.007812 Z M 0.988281 0 " clip-rule="nonzero"/></clipPath><clipPath id="a0f9254c11"><path d="M 62 0 L 89.234375 0 L 89.234375 10 L 62 10 Z M 62 0 " clip-rule="nonzero"/></clipPath></defs><g clip-path="url(#983528c8f6)"><path fill="#ffffff" d="M 0.988281 0 L 186.019531 0 L 186.019531 37.007812 L 0.988281 37.007812 Z M 0.988281 0 " fill-opacity="1" fill-rule="nonzero"/><path fill="#ffffff" d="M 0.988281 0 L 186.019531 0 L 186.019531 37.007812 L 0.988281 37.007812 Z M 0.988281 0 " fill-opacity="1" fill-rule="nonzero"/></g><path fill="#2986e2" d="M 29.460938 26.128906 C 28.34375 27.527344 27.460938 30.039062 28.167969 32.109375 C 28.609375 33.402344 29.726562 34.304688 31.191406 34.941406 C 32.394531 35.84375 34.21875 36.605469 36.871094 36.90625 C 28.308594 36.761719 25.476562 33.402344 25.195312 31.011719 C 24.839844 27.953125 26.523438 24.996094 29.441406 22.238281 C 35.546875 16.484375 47.117188 11.621094 57.132812 8.628906 C 61.429688 7.339844 65.464844 6.402344 68.632812 5.871094 C 64.511719 7.144531 60.742188 8.4375 57.292969 9.746094 C 41.648438 15.707031 32.910156 21.792969 29.460938 26.128906 Z M 29.460938 26.128906 " fill-opacity="1" fill-rule="nonzero"/><path fill="#f4743c" d="M 33.015625 27.472656 C 32.042969 28.765625 31.316406 31.082031 31.988281 32.921875 C 32.804688 35.101562 35.792969 36.019531 38.996094 36.339844 C 42.675781 36.480469 45.878906 36.125 45.878906 36.125 C 45.101562 36.265625 44.339844 36.375 43.597656 36.480469 C 41.046875 36.816406 38.820312 36.957031 36.890625 36.921875 C 34.21875 36.621094 32.394531 35.859375 31.210938 34.957031 C 29.988281 34.039062 29.425781 32.957031 29.28125 32.019531 C 28.894531 29.261719 30.328125 26.535156 32.910156 23.953125 C 38.304688 18.574219 48.691406 13.867188 57.699219 10.894531 C 61.574219 9.601562 65.199219 8.648438 68.050781 8.097656 C 64.332031 9.355469 60.953125 10.628906 57.855469 11.902344 C 43.792969 17.6875 36.023438 23.441406 33.015625 27.472656 Z M 33.015625 27.472656 " fill-opacity="1" fill-rule="nonzero"/><g clip-path="url(#a0f9254c11)"><path fill="#2986e2" d="M 89.335938 1.765625 C 88.996094 1.464844 88.253906 0.988281 86.769531 0.84375 C 85.8125 0.757812 84.859375 0.863281 83.9375 1.109375 L 77.746094 2.792969 L 66.652344 0.0507812 L 63.589844 0.988281 L 71.996094 4.417969 L 67.183594 6.152344 L 64.5625 5.285156 L 63.148438 5.640625 L 64.917969 7.089844 C 64.917969 7.089844 61.785156 8.347656 62.40625 9.265625 C 63.148438 10.347656 86.203125 3.109375 89.261719 2.15625 C 89.421875 2.082031 89.476562 1.871094 89.335938 1.765625 Z M 89.335938 1.765625 " fill-opacity="1" fill-rule="nonzero"/></g><g fill="#402978" fill-opacity="1"><g transform="translate(87.707001, 24.48252)"><g><path d="M 8.359375 -8.703125 L 5.09375 -8.703125 L 5.09375 0 L 3.375 0 L 3.375 -8.703125 L 0.125 -8.703125 L 0.125 -10.265625 L 8.359375 -10.265625 Z M 8.359375 -8.703125 "/></g></g></g><g fill="#402978" fill-opacity="1"><g transform="translate(95.940257, 24.48252)"><g><path d="M 7.859375 0 L 5.984375 -3.109375 C 5.878906 -3.097656 5.722656 -3.09375 5.515625 -3.09375 L 3.078125 -3.09375 L 3.078125 0 L 1.34375 0 L 1.34375 -10.265625 L 5.515625 -10.265625 C 6.816406 -10.265625 7.828125 -9.957031 8.546875 -9.34375 C 9.273438 -8.726562 9.640625 -7.863281 9.640625 -6.75 C 9.640625 -5.9375 9.457031 -5.242188 9.09375 -4.671875 C 8.726562 -4.109375 8.203125 -3.691406 7.515625 -3.421875 L 9.8125 0 Z M 3.078125 -4.640625 L 5.515625 -4.640625 C 7.171875 -4.640625 8 -5.332031 8 -6.71875 C 8 -8.039062 7.171875 -8.703125 5.515625 -8.703125 L 3.078125 -8.703125 Z M 3.078125 -4.640625 "/></g></g></g><g fill="#402978" fill-opacity="1"><g transform="translate(106.283131, 24.48252)"><g><path d="M 3.078125 0 L 1.34375 0 L 1.34375 -10.265625 L 3.078125 -10.265625 Z M 3.078125 0 "/></g></g></g><g fill="#402978" fill-opacity="1"><g transform="translate(110.458303, 24.48252)"><g><path d="M 1.34375 -10.265625 L 5.4375 -10.265625 C 6.726562 -10.265625 7.726562 -9.957031 8.4375 -9.34375 C 9.144531 -8.726562 9.5 -7.863281 9.5 -6.75 C 9.5 -5.59375 9.144531 -4.691406 8.4375 -4.046875 C 7.726562 -3.410156 6.726562 -3.09375 5.4375 -3.09375 L 3.078125 -3.09375 L 3.078125 0 L 1.34375 0 Z M 3.078125 -8.703125 L 3.078125 -4.640625 L 5.359375 -4.640625 C 7.015625 -4.640625 7.84375 -5.332031 7.84375 -6.71875 C 7.84375 -8.039062 7.015625 -8.703125 5.359375 -8.703125 Z M 3.078125 -8.703125 "/></g></g></g><g fill="#402978" fill-opacity="1"><g transform="translate(120.068672, 24.48252)"><g><path d="M 9.125 -9.015625 L 2.890625 -1.546875 L 9.203125 -1.546875 L 9.203125 0 L 0.546875 0 L 0.546875 -1.25 L 6.796875 -8.703125 L 0.734375 -8.703125 L 0.734375 -10.265625 L 9.125 -10.265625 Z M 9.125 -9.015625 "/></g></g></g><g fill="#402978" fill-opacity="1"><g transform="translate(129.576487, 24.48252)"><g><path d="M 2.0625 -8.8125 C 3.113281 -9.800781 4.40625 -10.296875 5.9375 -10.296875 C 7.46875 -10.296875 8.753906 -9.800781 9.796875 -8.8125 C 10.847656 -7.820312 11.375 -6.59375 11.375 -5.125 C 11.375 -3.664062 10.847656 -2.429688 9.796875 -1.421875 C 8.753906 -0.421875 7.46875 0.078125 5.9375 0.078125 C 4.40625 0.078125 3.113281 -0.421875 2.0625 -1.421875 C 1.019531 -2.429688 0.5 -3.664062 0.5 -5.125 C 0.5 -6.59375 1.019531 -7.820312 2.0625 -8.8125 Z M 5.953125 -8.75 C 4.929688 -8.75 4.054688 -8.398438 3.328125 -7.703125 C 2.609375 -7.003906 2.25 -6.144531 2.25 -5.125 C 2.25 -4.113281 2.613281 -3.253906 3.34375 -2.546875 C 4.070312 -1.835938 4.9375 -1.484375 5.9375 -1.484375 C 6.945312 -1.484375 7.804688 -1.835938 8.515625 -2.546875 C 9.234375 -3.253906 9.59375 -4.113281 9.59375 -5.125 C 9.59375 -6.144531 9.234375 -7.003906 8.515625 -7.703125 C 7.804688 -8.398438 6.953125 -8.75 5.953125 -8.75 Z M 5.953125 -8.75 "/></g></g></g><g fill="#402978" fill-opacity="1"><g transform="translate(141.193921, 24.48252)"><g><path d="M 10.25 0 L 8.546875 0 L 3.078125 -7.359375 L 3.078125 0 L 1.34375 0 L 1.34375 -10.265625 L 3.046875 -10.265625 L 8.546875 -2.890625 L 8.546875 -10.265625 L 10.25 -10.265625 Z M 10.25 0 "/></g></g></g><g fill="#402978" fill-opacity="1"><g transform="translate(152.547654, 24.48252)"><g><path d="M 8.671875 -8.703125 L 3.078125 -8.703125 L 3.078125 -5.9375 L 8.09375 -5.9375 L 8.09375 -4.375 L 3.078125 -4.375 L 3.078125 -1.546875 L 8.859375 -1.546875 L 8.859375 0 L 1.34375 0 L 1.34375 -10.265625 L 8.671875 -10.265625 Z M 8.671875 -8.703125 "/></g></g></g><g fill="#402978" fill-opacity="1"><g transform="translate(110.076597, 30.385816)"><g><path d="M 1.78125 -2.921875 L 1.78125 -2.625 L 1.0625 -2.625 L 1.0625 0 L 0.75 0 L 0.75 -2.625 L 0.03125 -2.625 L 0.03125 -2.921875 Z M 1.78125 -2.921875 "/></g></g></g><g fill="#402978" fill-opacity="1"><g transform="translate(111.899468, 30.385816)"><g><path d="M 0.140625 -1.453125 C 0.140625 -1.722656 0.207031 -1.972656 0.34375 -2.203125 C 0.476562 -2.441406 0.664062 -2.628906 0.90625 -2.765625 C 1.144531 -2.898438 1.398438 -2.96875 1.671875 -2.96875 C 1.941406 -2.96875 2.191406 -2.898438 2.421875 -2.765625 C 2.660156 -2.628906 2.847656 -2.441406 2.984375 -2.203125 C 3.117188 -1.972656 3.1875 -1.722656 3.1875 -1.453125 C 3.1875 -1.179688 3.117188 -0.929688 2.984375 -0.703125 C 2.847656 -0.472656 2.660156 -0.289062 2.421875 -0.15625 C 2.191406 -0.0195312 1.941406 0.046875 1.671875 0.046875 C 1.398438 0.046875 1.144531 -0.0195312 0.90625 -0.15625 C 0.675781 -0.289062 0.488281 -0.472656 0.34375 -0.703125 C 0.207031 -0.929688 0.140625 -1.179688 0.140625 -1.453125 Z M 1.671875 -2.671875 C 1.453125 -2.671875 1.25 -2.613281 1.0625 -2.5 C 0.882812 -2.394531 0.738281 -2.25 0.625 -2.0625 C 0.519531 -1.875 0.46875 -1.671875 0.46875 -1.453125 C 0.46875 -1.242188 0.519531 -1.046875 0.625 -0.859375 C 0.738281 -0.671875 0.890625 -0.519531 1.078125 -0.40625 C 1.265625 -0.300781 1.460938 -0.25 1.671875 -0.25 C 1.878906 -0.25 2.078125 -0.300781 2.265625 -0.40625 C 2.453125 -0.519531 2.597656 -0.671875 2.703125 -0.859375 C 2.816406 -1.046875 2.875 -1.242188 2.875 -1.453125 C 2.875 -1.671875 2.816406 -1.875 2.703125 -2.0625 C 2.597656 -2.25 2.453125 -2.394531 2.265625 -2.5 C 2.078125 -2.613281 1.878906 -2.671875 1.671875 -2.671875 Z M 1.671875 -2.671875 "/></g></g></g><g fill="#402978" fill-opacity="1"><g transform="translate(115.242688, 30.385816)"><g><path d="M 0.609375 -2.921875 L 0.609375 -1.125 C 0.609375 -0.875 0.632812 -0.695312 0.6875 -0.59375 C 0.75 -0.5 0.835938 -0.414062 0.953125 -0.34375 C 1.078125 -0.28125 1.203125 -0.25 1.328125 -0.25 C 1.453125 -0.25 1.566406 -0.273438 1.671875 -0.328125 C 1.773438 -0.390625 1.851562 -0.453125 1.90625 -0.515625 C 1.957031 -0.578125 1.992188 -0.648438 2.015625 -0.734375 C 2.035156 -0.828125 2.046875 -0.957031 2.046875 -1.125 L 2.046875 -2.921875 L 2.375 -2.921875 L 2.375 -1.0625 C 2.375 -0.863281 2.351562 -0.707031 2.3125 -0.59375 C 2.269531 -0.476562 2.195312 -0.367188 2.09375 -0.265625 C 2 -0.160156 1.882812 -0.0820312 1.75 -0.03125 C 1.613281 0.0195312 1.472656 0.046875 1.328125 0.046875 C 1.140625 0.046875 0.960938 0.00390625 0.796875 -0.078125 C 0.640625 -0.160156 0.515625 -0.273438 0.421875 -0.421875 C 0.328125 -0.566406 0.28125 -0.78125 0.28125 -1.0625 L 0.28125 -2.921875 Z M 0.609375 -2.921875 "/></g></g></g><g fill="#402978" fill-opacity="1"><g transform="translate(117.899425, 30.385816)"><g><path d="M 0.734375 -2.921875 C 1.429688 -2.921875 1.78125 -2.648438 1.78125 -2.109375 C 1.78125 -1.890625 1.710938 -1.707031 1.578125 -1.5625 C 1.453125 -1.414062 1.273438 -1.332031 1.046875 -1.3125 L 1.984375 0 L 1.578125 0 L 0.703125 -1.28125 L 0.625 -1.28125 L 0.625 0 L 0.296875 0 L 0.296875 -2.921875 Z M 0.625 -1.5625 L 0.765625 -1.5625 C 0.992188 -1.5625 1.164062 -1.601562 1.28125 -1.6875 C 1.394531 -1.78125 1.453125 -1.914062 1.453125 -2.09375 C 1.453125 -2.289062 1.394531 -2.425781 1.28125 -2.5 C 1.164062 -2.582031 1.003906 -2.625 0.796875 -2.625 L 0.625 -2.625 Z M 0.625 -1.5625 "/></g></g></g><g fill="#402978" fill-opacity="1"><g transform="translate(121.196105, 30.385816)"><g><path d="M 1.359375 -1.671875 L 1.96875 -0.890625 L 2.296875 -1.265625 L 2.53125 -1.078125 L 2.171875 -0.640625 L 2.65625 0 L 2.25 0 L 1.9375 -0.40625 C 1.757812 -0.25 1.59375 -0.132812 1.4375 -0.0625 C 1.289062 0.0078125 1.144531 0.046875 1 0.046875 C 0.851562 0.046875 0.710938 0.015625 0.578125 -0.046875 C 0.453125 -0.117188 0.347656 -0.21875 0.265625 -0.34375 C 0.191406 -0.46875 0.15625 -0.609375 0.15625 -0.765625 C 0.15625 -0.890625 0.179688 -1.003906 0.234375 -1.109375 C 0.285156 -1.210938 0.351562 -1.304688 0.4375 -1.390625 C 0.53125 -1.472656 0.6875 -1.585938 0.90625 -1.734375 C 0.820312 -1.847656 0.75 -1.953125 0.6875 -2.046875 C 0.632812 -2.140625 0.609375 -2.242188 0.609375 -2.359375 C 0.609375 -2.535156 0.664062 -2.679688 0.78125 -2.796875 C 0.90625 -2.910156 1.0625 -2.96875 1.25 -2.96875 C 1.425781 -2.96875 1.570312 -2.910156 1.6875 -2.796875 C 1.8125 -2.691406 1.875 -2.5625 1.875 -2.40625 C 1.875 -2.257812 1.832031 -2.128906 1.75 -2.015625 C 1.664062 -1.910156 1.535156 -1.796875 1.359375 -1.671875 Z M 1.171875 -1.90625 L 1.3125 -2 C 1.414062 -2.082031 1.484375 -2.148438 1.515625 -2.203125 C 1.546875 -2.265625 1.5625 -2.332031 1.5625 -2.40625 C 1.5625 -2.488281 1.53125 -2.554688 1.46875 -2.609375 C 1.40625 -2.671875 1.328125 -2.703125 1.234375 -2.703125 C 1.148438 -2.703125 1.078125 -2.671875 1.015625 -2.609375 C 0.953125 -2.546875 0.921875 -2.46875 0.921875 -2.375 C 0.921875 -2.289062 0.957031 -2.203125 1.03125 -2.109375 Z M 1.75 -0.65625 L 1.09375 -1.484375 C 1 -1.421875 0.90625 -1.359375 0.8125 -1.296875 C 0.71875 -1.234375 0.632812 -1.15625 0.5625 -1.0625 C 0.5 -0.976562 0.46875 -0.878906 0.46875 -0.765625 C 0.46875 -0.628906 0.519531 -0.507812 0.625 -0.40625 C 0.726562 -0.300781 0.847656 -0.25 0.984375 -0.25 C 1.097656 -0.25 1.210938 -0.28125 1.328125 -0.34375 C 1.441406 -0.40625 1.582031 -0.507812 1.75 -0.65625 Z M 1.75 -0.65625 "/></g></g></g><g fill="#402978" fill-opacity="1"><g transform="translate(123.891625, 30.385816)"><g/></g></g><g fill="#402978" fill-opacity="1"><g transform="translate(125.086187, 30.385816)"><g><path d="M 1.78125 -2.921875 L 1.78125 -2.625 L 1.0625 -2.625 L 1.0625 0 L 0.75 0 L 0.75 -2.625 L 0.03125 -2.625 L 0.03125 -2.921875 Z M 1.78125 -2.921875 "/></g></g></g><g fill="#402978" fill-opacity="1"><g transform="translate(126.909059, 30.385816)"><g><path d="M 0.734375 -2.921875 C 1.429688 -2.921875 1.78125 -2.648438 1.78125 -2.109375 C 1.78125 -1.890625 1.710938 -1.707031 1.578125 -1.5625 C 1.453125 -1.414062 1.273438 -1.332031 1.046875 -1.3125 L 1.984375 0 L 1.578125 0 L 0.703125 -1.28125 L 0.625 -1.28125 L 0.625 0 L 0.296875 0 L 0.296875 -2.921875 Z M 0.625 -1.5625 L 0.765625 -1.5625 C 0.992188 -1.5625 1.164062 -1.601562 1.28125 -1.6875 C 1.394531 -1.78125 1.453125 -1.914062 1.453125 -2.09375 C 1.453125 -2.289062 1.394531 -2.425781 1.28125 -2.5 C 1.164062 -2.582031 1.003906 -2.625 0.796875 -2.625 L 0.625 -2.625 Z M 0.625 -1.5625 "/></g></g></g><g fill="#402978" fill-opacity="1"><g transform="translate(129.011176, 30.385816)"><g><path d="M 1.375 -3.0625 L 2.6875 0 L 2.328125 0 L 1.984375 -0.828125 L 0.734375 -0.828125 L 0.375 0 L 0.015625 0 Z M 0.859375 -1.125 L 1.859375 -1.125 L 1.359375 -2.296875 Z M 0.53125 -2.921875 Z M 0.53125 -2.921875 "/></g></g></g><g fill="#402978" fill-opacity="1"><g transform="translate(131.72221, 30.385816)"><g><path d="M 0.375 -2.921875 L 1.203125 -0.6875 L 2.046875 -2.921875 L 2.390625 -2.921875 L 1.203125 0.171875 L 0.015625 -2.921875 Z M 0.40625 0 Z M 0.40625 0 "/></g></g></g><g fill="#402978" fill-opacity="1"><g transform="translate(134.142361, 30.385816)"><g><path d="M 1.8125 -2.921875 L 1.8125 -2.625 L 0.625 -2.625 L 0.625 -1.75 L 1.78125 -1.75 L 1.78125 -1.453125 L 0.625 -1.453125 L 0.625 -0.296875 L 1.8125 -0.296875 L 1.8125 0 L 0.296875 0 L 0.296875 -2.921875 Z M 1.8125 -2.921875 "/></g></g></g><g fill="#402978" fill-opacity="1"><g transform="translate(136.213453, 30.385816)"><g><path d="M 0.625 -2.921875 L 0.625 -0.296875 L 1.421875 -0.296875 L 1.421875 0 L 0.296875 0 L 0.296875 -2.921875 Z M 0.625 -2.921875 "/></g></g></g><g fill="#402978" fill-opacity="1"><g transform="translate(137.66787, 30.385816)"><g/></g></g><g fill="#402978" fill-opacity="1"><g transform="translate(138.862432, 30.385816)"><g><path d="M 1.375 -3.0625 L 2.6875 0 L 2.328125 0 L 1.984375 -0.828125 L 0.734375 -0.828125 L 0.375 0 L 0.015625 0 Z M 0.859375 -1.125 L 1.859375 -1.125 L 1.359375 -2.296875 Z M 0.53125 -2.921875 Z M 0.53125 -2.921875 "/></g></g></g><g fill="#402978" fill-opacity="1"><g transform="translate(141.573467, 30.385816)"><g><path d="M 2.640625 -2.125 C 2.515625 -2.300781 2.367188 -2.4375 2.203125 -2.53125 C 2.046875 -2.625 1.859375 -2.671875 1.640625 -2.671875 C 1.429688 -2.671875 1.234375 -2.613281 1.046875 -2.5 C 0.859375 -2.394531 0.710938 -2.25 0.609375 -2.0625 C 0.503906 -1.875 0.453125 -1.671875 0.453125 -1.453125 C 0.453125 -1.234375 0.507812 -1.03125 0.625 -0.84375 C 0.738281 -0.65625 0.882812 -0.507812 1.0625 -0.40625 C 1.25 -0.300781 1.4375 -0.25 1.625 -0.25 C 1.800781 -0.25 1.96875 -0.285156 2.125 -0.359375 C 2.28125 -0.441406 2.40625 -0.550781 2.5 -0.6875 C 2.601562 -0.832031 2.65625 -0.992188 2.65625 -1.171875 L 1.796875 -1.171875 L 1.796875 -1.46875 L 3.015625 -1.46875 L 3.015625 -1.296875 C 3.015625 -1.109375 2.976562 -0.929688 2.90625 -0.765625 C 2.84375 -0.609375 2.742188 -0.46875 2.609375 -0.34375 C 2.484375 -0.21875 2.332031 -0.117188 2.15625 -0.046875 C 1.988281 0.015625 1.8125 0.046875 1.625 0.046875 C 1.363281 0.046875 1.113281 -0.0195312 0.875 -0.15625 C 0.644531 -0.289062 0.460938 -0.472656 0.328125 -0.703125 C 0.191406 -0.929688 0.125 -1.179688 0.125 -1.453125 C 0.125 -1.722656 0.191406 -1.972656 0.328125 -2.203125 C 0.460938 -2.441406 0.648438 -2.628906 0.890625 -2.765625 C 1.128906 -2.898438 1.378906 -2.96875 1.640625 -2.96875 C 1.898438 -2.96875 2.128906 -2.910156 2.328125 -2.796875 C 2.535156 -2.691406 2.722656 -2.539062 2.890625 -2.34375 Z M 2.640625 -2.125 "/></g></g></g><g fill="#402978" fill-opacity="1"><g transform="translate(144.753794, 30.385816)"><g><path d="M 1.8125 -2.921875 L 1.8125 -2.625 L 0.625 -2.625 L 0.625 -1.75 L 1.78125 -1.75 L 1.78125 -1.453125 L 0.625 -1.453125 L 0.625 -0.296875 L 1.8125 -0.296875 L 1.8125 0 L 0.296875 0 L 0.296875 -2.921875 Z M 1.8125 -2.921875 "/></g></g></g><g fill="#402978" fill-opacity="1"><g transform="translate(146.824886, 30.385816)"><g><path d="M 0.3125 -3.046875 L 2.59375 -0.65625 L 2.59375 -2.921875 L 2.921875 -2.921875 L 2.921875 0.125 L 0.640625 -2.25 L 0.640625 0 L 0.3125 0 Z M 0.3125 -3.046875 "/></g></g></g><g fill="#402978" fill-opacity="1"><g transform="translate(150.05951, 30.385816)"><g><path d="M 2.515625 -2.28125 C 2.398438 -2.40625 2.265625 -2.5 2.109375 -2.5625 C 1.953125 -2.632812 1.789062 -2.671875 1.625 -2.671875 C 1.425781 -2.671875 1.234375 -2.613281 1.046875 -2.5 C 0.859375 -2.394531 0.710938 -2.25 0.609375 -2.0625 C 0.503906 -1.875 0.453125 -1.671875 0.453125 -1.453125 C 0.453125 -1.253906 0.503906 -1.054688 0.609375 -0.859375 C 0.722656 -0.671875 0.867188 -0.519531 1.046875 -0.40625 C 1.234375 -0.300781 1.429688 -0.25 1.640625 -0.25 C 1.796875 -0.25 1.953125 -0.28125 2.109375 -0.34375 C 2.265625 -0.414062 2.398438 -0.515625 2.515625 -0.640625 L 2.515625 -0.234375 C 2.398438 -0.140625 2.265625 -0.0664062 2.109375 -0.015625 C 1.960938 0.0234375 1.8125 0.046875 1.65625 0.046875 C 1.394531 0.046875 1.144531 -0.015625 0.90625 -0.140625 C 0.664062 -0.273438 0.472656 -0.457031 0.328125 -0.6875 C 0.191406 -0.914062 0.125 -1.171875 0.125 -1.453125 C 0.125 -1.722656 0.191406 -1.972656 0.328125 -2.203125 C 0.460938 -2.441406 0.648438 -2.628906 0.890625 -2.765625 C 1.128906 -2.898438 1.382812 -2.96875 1.65625 -2.96875 C 1.820312 -2.96875 1.984375 -2.941406 2.140625 -2.890625 C 2.296875 -2.835938 2.421875 -2.769531 2.515625 -2.6875 Z M 2.515625 -2.28125 "/></g></g></g><g fill="#402978" fill-opacity="1"><g transform="translate(152.840358, 30.385816)"><g><path d="M 0.40625 -2.921875 L 1.15625 -1.625 L 1.890625 -2.921875 L 2.265625 -2.921875 L 1.3125 -1.25 L 1.3125 0 L 0.984375 0 L 0.984375 -1.25 L 0.03125 -2.921875 Z M 0.40625 -2.921875 "/></g></g></g></svg>