<svg xmlns="http://www.w3.org/2000/svg" xmlns:xlink="http://www.w3.org/1999/xlink" width="100" zoomAndPan="magnify" viewBox="0 0 75 39.749999" height="53" preserveAspectRatio="xMidYMid meet" version="1.0"><defs><g/><clipPath id="ec5bf572ea"><path d="M 0.234375 9 L 35 9 L 35 34.195312 L 0.234375 34.195312 Z M 0.234375 9 " clip-rule="nonzero"/></clipPath><clipPath id="c8b2231cd0"><path d="M 3 11 L 35 11 L 35 34.195312 L 3 34.195312 Z M 3 11 " clip-rule="nonzero"/></clipPath><clipPath id="cddc88081e"><path d="M 29 5.128906 L 51.660156 5.128906 L 51.660156 13 L 29 13 Z M 29 5.128906 " clip-rule="nonzero"/></clipPath><clipPath id="39a8127616"><path d="M 68 21 L 74.765625 21 L 74.765625 31 L 68 31 Z M 68 21 " clip-rule="nonzero"/></clipPath><clipPath id="0f164df934"><path d="M 72 31 L 74.765625 31 L 74.765625 34 L 72 34 Z M 72 31 " clip-rule="nonzero"/></clipPath></defs><g clip-path="url(#ec5bf572ea)"><path fill="#2986e2" d="M 3.882812 25.777344 C 3.003906 26.882812 2.304688 28.867188 2.863281 30.503906 C 3.210938 31.523438 4.09375 32.238281 5.253906 32.738281 C 6.203125 33.453125 7.644531 34.054688 9.742188 34.292969 C 2.976562 34.179688 0.738281 31.523438 0.515625 29.636719 C 0.234375 27.21875 1.5625 24.882812 3.871094 22.699219 C 8.695312 18.15625 17.839844 14.3125 25.753906 11.949219 C 29.148438 10.925781 32.335938 10.1875 34.839844 9.765625 C 31.582031 10.773438 28.605469 11.792969 25.878906 12.828125 C 13.515625 17.542969 6.609375 22.351562 3.882812 25.777344 Z M 3.882812 25.777344 " fill-opacity="1" fill-rule="nonzero"/></g><g clip-path="url(#c8b2231cd0)"><path fill="#f4743c" d="M 6.695312 26.839844 C 5.925781 27.859375 5.351562 29.691406 5.882812 31.144531 C 6.527344 32.867188 8.890625 33.59375 11.421875 33.84375 C 14.328125 33.957031 16.859375 33.675781 16.859375 33.675781 C 16.242188 33.789062 15.644531 33.871094 15.054688 33.957031 C 13.042969 34.222656 11.28125 34.332031 9.757812 34.304688 C 7.644531 34.066406 6.203125 33.46875 5.269531 32.753906 C 4.304688 32.027344 3.855469 31.175781 3.742188 30.433594 C 3.4375 28.25 4.570312 26.097656 6.609375 24.058594 C 10.875 19.804688 19.082031 16.085938 26.199219 13.738281 C 29.261719 12.71875 32.128906 11.960938 34.378906 11.527344 C 31.441406 12.523438 28.773438 13.527344 26.324219 14.535156 C 15.210938 19.105469 9.070312 23.652344 6.695312 26.839844 Z M 6.695312 26.839844 " fill-opacity="1" fill-rule="nonzero"/></g><g clip-path="url(#cddc88081e)"><path fill="#2986e2" d="M 51.199219 6.523438 C 50.933594 6.285156 50.347656 5.90625 49.171875 5.796875 C 48.417969 5.726562 47.664062 5.808594 46.933594 6.003906 L 42.042969 7.335938 L 33.273438 5.167969 L 30.855469 5.90625 L 37.496094 8.621094 L 33.695312 9.992188 L 31.625 9.304688 L 30.507812 9.585938 L 31.902344 10.730469 C 31.902344 10.730469 29.429688 11.722656 29.917969 12.453125 C 30.507812 13.304688 48.726562 7.585938 51.144531 6.832031 C 51.269531 6.773438 51.3125 6.605469 51.199219 6.523438 Z M 51.199219 6.523438 " fill-opacity="1" fill-rule="nonzero"/></g><g fill="#402978" fill-opacity="1"><g transform="translate(15.928476, 30.069843)"><g><path d="M 6.59375 -6.875 L 4.03125 -6.875 L 4.03125 0 L 2.65625 0 L 2.65625 -6.875 L 0.109375 -6.875 L 0.109375 -8.109375 L 6.59375 -8.109375 Z M 6.59375 -6.875 "/></g></g></g><g fill="#402978" fill-opacity="1"><g transform="translate(22.434422, 30.069843)"><g><path d="M 6.203125 0 L 4.71875 -2.453125 C 4.644531 -2.441406 4.523438 -2.4375 4.359375 -2.4375 L 2.4375 -2.4375 L 2.4375 0 L 1.0625 0 L 1.0625 -8.109375 L 4.359375 -8.109375 C 5.390625 -8.109375 6.191406 -7.863281 6.765625 -7.375 C 7.335938 -6.894531 7.625 -6.21875 7.625 -5.34375 C 7.625 -4.6875 7.476562 -4.132812 7.1875 -3.6875 C 6.894531 -3.238281 6.476562 -2.910156 5.9375 -2.703125 L 7.75 0 Z M 2.4375 -3.671875 L 4.359375 -3.671875 C 5.671875 -3.671875 6.328125 -4.210938 6.328125 -5.296875 C 6.328125 -6.347656 5.671875 -6.875 4.359375 -6.875 L 2.4375 -6.875 Z M 2.4375 -3.671875 "/></g></g></g><g fill="#402978" fill-opacity="1"><g transform="translate(30.607397, 30.069843)"><g><path d="M 2.4375 0 L 1.0625 0 L 1.0625 -8.109375 L 2.4375 -8.109375 Z M 2.4375 0 "/></g></g></g><g fill="#402978" fill-opacity="1"><g transform="translate(33.906632, 30.069843)"><g><path d="M 1.0625 -8.109375 L 4.296875 -8.109375 C 5.316406 -8.109375 6.101562 -7.863281 6.65625 -7.375 C 7.21875 -6.894531 7.5 -6.21875 7.5 -5.34375 C 7.5 -4.414062 7.21875 -3.695312 6.65625 -3.1875 C 6.101562 -2.6875 5.316406 -2.4375 4.296875 -2.4375 L 2.4375 -2.4375 L 2.4375 0 L 1.0625 0 Z M 2.4375 -6.875 L 2.4375 -3.671875 L 4.234375 -3.671875 C 5.535156 -3.671875 6.1875 -4.210938 6.1875 -5.296875 C 6.1875 -6.347656 5.535156 -6.875 4.234375 -6.875 Z M 2.4375 -6.875 "/></g></g></g><g fill="#402978" fill-opacity="1"><g transform="translate(41.500778, 30.069843)"><g><path d="M 7.21875 -7.125 L 2.28125 -1.234375 L 7.265625 -1.234375 L 7.265625 0 L 0.421875 0 L 0.421875 -0.984375 L 5.375 -6.875 L 0.578125 -6.875 L 0.578125 -8.109375 L 7.21875 -8.109375 Z M 7.21875 -7.125 "/></g></g></g><g fill="#402978" fill-opacity="1"><g transform="translate(49.013887, 30.069843)"><g><path d="M 1.625 -6.953125 C 2.457031 -7.742188 3.476562 -8.140625 4.6875 -8.140625 C 5.894531 -8.140625 6.910156 -7.742188 7.734375 -6.953125 C 8.566406 -6.171875 8.984375 -5.203125 8.984375 -4.046875 C 8.984375 -2.890625 8.566406 -1.914062 7.734375 -1.125 C 6.910156 -0.332031 5.894531 0.0625 4.6875 0.0625 C 3.476562 0.0625 2.457031 -0.332031 1.625 -1.125 C 0.800781 -1.914062 0.390625 -2.890625 0.390625 -4.046875 C 0.390625 -5.203125 0.800781 -6.171875 1.625 -6.953125 Z M 4.703125 -6.90625 C 3.898438 -6.90625 3.210938 -6.628906 2.640625 -6.078125 C 2.066406 -5.523438 1.78125 -4.847656 1.78125 -4.046875 C 1.78125 -3.242188 2.066406 -2.5625 2.640625 -2 C 3.222656 -1.445312 3.910156 -1.171875 4.703125 -1.171875 C 5.492188 -1.171875 6.171875 -1.445312 6.734375 -2 C 7.296875 -2.5625 7.578125 -3.242188 7.578125 -4.046875 C 7.578125 -4.847656 7.296875 -5.523438 6.734375 -6.078125 C 6.171875 -6.628906 5.492188 -6.90625 4.703125 -6.90625 Z M 4.703125 -6.90625 "/></g></g></g><g fill="#402978" fill-opacity="1"><g transform="translate(58.194022, 30.069843)"><g><path d="M 8.09375 0 L 6.75 0 L 2.4375 -5.8125 L 2.4375 0 L 1.0625 0 L 1.0625 -8.109375 L 2.40625 -8.109375 L 6.75 -2.28125 L 6.75 -8.109375 L 8.09375 -8.109375 Z M 8.09375 0 "/></g></g></g><g clip-path="url(#39a8127616)"><g fill="#402978" fill-opacity="1"><g transform="translate(67.16578, 30.069843)"><g><path d="M 6.859375 -6.875 L 2.4375 -6.875 L 2.4375 -4.6875 L 6.390625 -4.6875 L 6.390625 -3.46875 L 2.4375 -3.46875 L 2.4375 -1.234375 L 7 -1.234375 L 7 0 L 1.0625 0 L 1.0625 -8.109375 L 6.859375 -8.109375 Z M 6.859375 -6.875 "/></g></g></g></g><g fill="#402978" fill-opacity="1"><g transform="translate(38.587009, 33.401648)"><g><path d="M 1.40625 -2.3125 L 1.40625 -2.0625 L 0.84375 -2.0625 L 0.84375 0 L 0.59375 0 L 0.59375 -2.0625 L 0.03125 -2.0625 L 0.03125 -2.3125 Z M 1.40625 -2.3125 "/></g></g></g><g fill="#402978" fill-opacity="1"><g transform="translate(40.027448, 33.401648)"><g><path d="M 0.109375 -1.15625 C 0.109375 -1.363281 0.160156 -1.554688 0.265625 -1.734375 C 0.378906 -1.921875 0.53125 -2.066406 0.71875 -2.171875 C 0.90625 -2.285156 1.101562 -2.34375 1.3125 -2.34375 C 1.53125 -2.34375 1.734375 -2.289062 1.921875 -2.1875 C 2.109375 -2.082031 2.253906 -1.9375 2.359375 -1.75 C 2.472656 -1.5625 2.53125 -1.363281 2.53125 -1.15625 C 2.53125 -0.9375 2.472656 -0.734375 2.359375 -0.546875 C 2.253906 -0.367188 2.109375 -0.222656 1.921875 -0.109375 C 1.734375 -0.00390625 1.53125 0.046875 1.3125 0.046875 C 1.101562 0.046875 0.90625 -0.00390625 0.71875 -0.109375 C 0.53125 -0.222656 0.378906 -0.367188 0.265625 -0.546875 C 0.160156 -0.734375 0.109375 -0.9375 0.109375 -1.15625 Z M 1.3125 -2.109375 C 1.144531 -2.109375 0.988281 -2.0625 0.84375 -1.96875 C 0.695312 -1.882812 0.582031 -1.769531 0.5 -1.625 C 0.414062 -1.476562 0.375 -1.320312 0.375 -1.15625 C 0.375 -0.988281 0.414062 -0.828125 0.5 -0.671875 C 0.582031 -0.523438 0.695312 -0.410156 0.84375 -0.328125 C 0.988281 -0.242188 1.144531 -0.203125 1.3125 -0.203125 C 1.488281 -0.203125 1.648438 -0.242188 1.796875 -0.328125 C 1.941406 -0.421875 2.054688 -0.539062 2.140625 -0.6875 C 2.222656 -0.832031 2.265625 -0.988281 2.265625 -1.15625 C 2.265625 -1.320312 2.222656 -1.476562 2.140625 -1.625 C 2.054688 -1.78125 1.941406 -1.898438 1.796875 -1.984375 C 1.648438 -2.066406 1.488281 -2.109375 1.3125 -2.109375 Z M 1.3125 -2.109375 "/></g></g></g><g fill="#402978" fill-opacity="1"><g transform="translate(42.669271, 33.401648)"><g><path d="M 0.484375 -2.3125 L 0.484375 -0.890625 C 0.484375 -0.691406 0.503906 -0.550781 0.546875 -0.46875 C 0.585938 -0.394531 0.65625 -0.332031 0.75 -0.28125 C 0.84375 -0.226562 0.941406 -0.203125 1.046875 -0.203125 C 1.140625 -0.203125 1.226562 -0.222656 1.3125 -0.265625 C 1.40625 -0.304688 1.46875 -0.351562 1.5 -0.40625 C 1.539062 -0.457031 1.566406 -0.515625 1.578125 -0.578125 C 1.597656 -0.648438 1.609375 -0.753906 1.609375 -0.890625 L 1.609375 -2.3125 L 1.875 -2.3125 L 1.875 -0.84375 C 1.875 -0.6875 1.859375 -0.5625 1.828125 -0.46875 C 1.796875 -0.375 1.738281 -0.285156 1.65625 -0.203125 C 1.582031 -0.128906 1.488281 -0.0664062 1.375 -0.015625 C 1.269531 0.0234375 1.160156 0.046875 1.046875 0.046875 C 0.898438 0.046875 0.765625 0.0078125 0.640625 -0.0625 C 0.515625 -0.132812 0.414062 -0.226562 0.34375 -0.34375 C 0.269531 -0.457031 0.234375 -0.625 0.234375 -0.84375 L 0.234375 -2.3125 Z M 0.484375 -2.3125 "/></g></g></g><g fill="#402978" fill-opacity="1"><g transform="translate(44.768634, 33.401648)"><g><path d="M 0.578125 -2.3125 C 1.128906 -2.3125 1.40625 -2.097656 1.40625 -1.671875 C 1.40625 -1.492188 1.351562 -1.347656 1.25 -1.234375 C 1.15625 -1.117188 1.015625 -1.050781 0.828125 -1.03125 L 1.5625 0 L 1.25 0 L 0.546875 -1.015625 L 0.484375 -1.015625 L 0.484375 0 L 0.234375 0 L 0.234375 -2.3125 Z M 0.484375 -1.234375 L 0.609375 -1.234375 C 0.785156 -1.234375 0.921875 -1.265625 1.015625 -1.328125 C 1.109375 -1.398438 1.15625 -1.507812 1.15625 -1.65625 C 1.15625 -1.8125 1.109375 -1.914062 1.015625 -1.96875 C 0.921875 -2.03125 0.789062 -2.0625 0.625 -2.0625 L 0.484375 -2.0625 Z M 0.484375 -1.234375 "/></g></g></g><g fill="#402978" fill-opacity="1"><g transform="translate(46.429734, 33.401648)"><g/></g></g><g fill="#402978" fill-opacity="1"><g transform="translate(47.373682, 33.401648)"><g><path d="M 1.078125 -1.3125 L 1.5625 -0.703125 L 1.8125 -1 L 2 -0.84375 L 1.71875 -0.5 L 2.109375 0 L 1.78125 0 L 1.53125 -0.328125 C 1.382812 -0.191406 1.253906 -0.09375 1.140625 -0.03125 C 1.023438 0.0195312 0.910156 0.046875 0.796875 0.046875 C 0.671875 0.046875 0.554688 0.0195312 0.453125 -0.03125 C 0.359375 -0.09375 0.28125 -0.171875 0.21875 -0.265625 C 0.15625 -0.367188 0.125 -0.484375 0.125 -0.609375 C 0.125 -0.703125 0.144531 -0.789062 0.1875 -0.875 C 0.226562 -0.957031 0.28125 -1.03125 0.34375 -1.09375 C 0.414062 -1.164062 0.539062 -1.257812 0.71875 -1.375 C 0.644531 -1.457031 0.585938 -1.535156 0.546875 -1.609375 C 0.503906 -1.691406 0.484375 -1.773438 0.484375 -1.859375 C 0.484375 -1.992188 0.53125 -2.109375 0.625 -2.203125 C 0.71875 -2.296875 0.835938 -2.34375 0.984375 -2.34375 C 1.117188 -2.34375 1.234375 -2.296875 1.328125 -2.203125 C 1.429688 -2.117188 1.484375 -2.015625 1.484375 -1.890625 C 1.484375 -1.785156 1.445312 -1.6875 1.375 -1.59375 C 1.3125 -1.507812 1.210938 -1.414062 1.078125 -1.3125 Z M 0.921875 -1.5 L 1.03125 -1.59375 C 1.113281 -1.644531 1.164062 -1.691406 1.1875 -1.734375 C 1.21875 -1.785156 1.234375 -1.835938 1.234375 -1.890625 C 1.234375 -1.960938 1.207031 -2.019531 1.15625 -2.0625 C 1.113281 -2.101562 1.054688 -2.125 0.984375 -2.125 C 0.910156 -2.125 0.847656 -2.097656 0.796875 -2.046875 C 0.753906 -2.003906 0.734375 -1.945312 0.734375 -1.875 C 0.734375 -1.8125 0.757812 -1.738281 0.8125 -1.65625 Z M 1.375 -0.515625 L 0.859375 -1.171875 C 0.785156 -1.128906 0.710938 -1.082031 0.640625 -1.03125 C 0.566406 -0.976562 0.503906 -0.914062 0.453125 -0.84375 C 0.398438 -0.769531 0.375 -0.691406 0.375 -0.609375 C 0.375 -0.503906 0.414062 -0.40625 0.5 -0.3125 C 0.582031 -0.226562 0.675781 -0.1875 0.78125 -0.1875 C 0.863281 -0.1875 0.953125 -0.210938 1.046875 -0.265625 C 1.140625 -0.316406 1.25 -0.398438 1.375 -0.515625 Z M 1.375 -0.515625 "/></g></g></g><g fill="#402978" fill-opacity="1"><g transform="translate(49.50369, 33.401648)"><g/></g></g><g fill="#402978" fill-opacity="1"><g transform="translate(50.447638, 33.401648)"><g><path d="M 1.40625 -2.3125 L 1.40625 -2.0625 L 0.84375 -2.0625 L 0.84375 0 L 0.59375 0 L 0.59375 -2.0625 L 0.03125 -2.0625 L 0.03125 -2.3125 Z M 1.40625 -2.3125 "/></g></g></g><g fill="#402978" fill-opacity="1"><g transform="translate(51.888077, 33.401648)"><g><path d="M 0.578125 -2.3125 C 1.128906 -2.3125 1.40625 -2.097656 1.40625 -1.671875 C 1.40625 -1.492188 1.351562 -1.347656 1.25 -1.234375 C 1.15625 -1.117188 1.015625 -1.050781 0.828125 -1.03125 L 1.5625 0 L 1.25 0 L 0.546875 -1.015625 L 0.484375 -1.015625 L 0.484375 0 L 0.234375 0 L 0.234375 -2.3125 Z M 0.484375 -1.234375 L 0.609375 -1.234375 C 0.785156 -1.234375 0.921875 -1.265625 1.015625 -1.328125 C 1.109375 -1.398438 1.15625 -1.507812 1.15625 -1.65625 C 1.15625 -1.8125 1.109375 -1.914062 1.015625 -1.96875 C 0.921875 -2.03125 0.789062 -2.0625 0.625 -2.0625 L 0.484375 -2.0625 Z M 0.484375 -1.234375 "/></g></g></g><g fill="#402978" fill-opacity="1"><g transform="translate(53.549177, 33.401648)"><g><path d="M 1.078125 -2.421875 L 2.125 0 L 1.84375 0 L 1.5625 -0.65625 L 0.578125 -0.65625 L 0.296875 0 L 0.015625 0 Z M 0.6875 -0.890625 L 1.46875 -0.890625 L 1.078125 -1.8125 Z M 0.421875 -2.3125 Z M 0.421875 -2.3125 "/></g></g></g><g fill="#402978" fill-opacity="1"><g transform="translate(55.691446, 33.401648)"><g><path d="M 0.296875 -2.3125 L 0.953125 -0.546875 L 1.609375 -2.3125 L 1.890625 -2.3125 L 0.953125 0.140625 L 0.015625 -2.3125 Z M 0.328125 0 Z M 0.328125 0 "/></g></g></g><g fill="#402978" fill-opacity="1"><g transform="translate(57.603857, 33.401648)"><g><path d="M 1.4375 -2.3125 L 1.4375 -2.0625 L 0.484375 -2.0625 L 0.484375 -1.390625 L 1.40625 -1.390625 L 1.40625 -1.140625 L 0.484375 -1.140625 L 0.484375 -0.234375 L 1.4375 -0.234375 L 1.4375 0 L 0.234375 0 L 0.234375 -2.3125 Z M 1.4375 -2.3125 "/></g></g></g><g fill="#402978" fill-opacity="1"><g transform="translate(59.240441, 33.401648)"><g><path d="M 0.484375 -2.3125 L 0.484375 -0.234375 L 1.125 -0.234375 L 1.125 0 L 0.234375 0 L 0.234375 -2.3125 Z M 0.484375 -2.3125 "/></g></g></g><g fill="#402978" fill-opacity="1"><g transform="translate(60.389726, 33.401648)"><g/></g></g><g fill="#402978" fill-opacity="1"><g transform="translate(61.333674, 33.401648)"><g><path d="M 1.078125 -2.421875 L 2.125 0 L 1.84375 0 L 1.5625 -0.65625 L 0.578125 -0.65625 L 0.296875 0 L 0.015625 0 Z M 0.6875 -0.890625 L 1.46875 -0.890625 L 1.078125 -1.8125 Z M 0.421875 -2.3125 Z M 0.421875 -2.3125 "/></g></g></g><g fill="#402978" fill-opacity="1"><g transform="translate(63.475942, 33.401648)"><g><path d="M 2.09375 -1.671875 C 1.988281 -1.816406 1.867188 -1.925781 1.734375 -2 C 1.609375 -2.070312 1.460938 -2.109375 1.296875 -2.109375 C 1.128906 -2.109375 0.972656 -2.0625 0.828125 -1.96875 C 0.679688 -1.882812 0.566406 -1.769531 0.484375 -1.625 C 0.398438 -1.476562 0.359375 -1.316406 0.359375 -1.140625 C 0.359375 -0.972656 0.398438 -0.816406 0.484375 -0.671875 C 0.578125 -0.523438 0.695312 -0.410156 0.84375 -0.328125 C 0.988281 -0.242188 1.132812 -0.203125 1.28125 -0.203125 C 1.414062 -0.203125 1.546875 -0.234375 1.671875 -0.296875 C 1.804688 -0.359375 1.910156 -0.441406 1.984375 -0.546875 C 2.066406 -0.660156 2.109375 -0.785156 2.109375 -0.921875 L 1.421875 -0.921875 L 1.421875 -1.15625 L 2.375 -1.15625 L 2.375 -1.03125 C 2.375 -0.875 2.347656 -0.734375 2.296875 -0.609375 C 2.242188 -0.484375 2.164062 -0.367188 2.0625 -0.265625 C 1.957031 -0.171875 1.835938 -0.09375 1.703125 -0.03125 C 1.566406 0.0195312 1.425781 0.046875 1.28125 0.046875 C 1.070312 0.046875 0.875 -0.00390625 0.6875 -0.109375 C 0.507812 -0.222656 0.363281 -0.367188 0.25 -0.546875 C 0.144531 -0.734375 0.09375 -0.929688 0.09375 -1.140625 C 0.09375 -1.359375 0.144531 -1.5625 0.25 -1.75 C 0.363281 -1.9375 0.515625 -2.082031 0.703125 -2.1875 C 0.890625 -2.289062 1.085938 -2.34375 1.296875 -2.34375 C 1.503906 -2.34375 1.6875 -2.300781 1.84375 -2.21875 C 2.007812 -2.132812 2.15625 -2.007812 2.28125 -1.84375 Z M 2.09375 -1.671875 "/></g></g></g><g fill="#402978" fill-opacity="1"><g transform="translate(65.989048, 33.401648)"><g><path d="M 1.4375 -2.3125 L 1.4375 -2.0625 L 0.484375 -2.0625 L 0.484375 -1.390625 L 1.40625 -1.390625 L 1.40625 -1.140625 L 0.484375 -1.140625 L 0.484375 -0.234375 L 1.4375 -0.234375 L 1.4375 0 L 0.234375 0 L 0.234375 -2.3125 Z M 1.4375 -2.3125 "/></g></g></g><g fill="#402978" fill-opacity="1"><g transform="translate(67.625632, 33.401648)"><g><path d="M 0.25 -2.40625 L 2.046875 -0.515625 L 2.046875 -2.3125 L 2.3125 -2.3125 L 2.3125 0.109375 L 0.5 -1.78125 L 0.5 0 L 0.25 0 Z M 0.25 -2.40625 "/></g></g></g><g fill="#402978" fill-opacity="1"><g transform="translate(70.181643, 33.401648)"><g><path d="M 2 -1.796875 C 1.894531 -1.898438 1.78125 -1.976562 1.65625 -2.03125 C 1.539062 -2.082031 1.421875 -2.109375 1.296875 -2.109375 C 1.128906 -2.109375 0.972656 -2.0625 0.828125 -1.96875 C 0.679688 -1.882812 0.566406 -1.769531 0.484375 -1.625 C 0.398438 -1.476562 0.359375 -1.320312 0.359375 -1.15625 C 0.359375 -0.988281 0.398438 -0.832031 0.484375 -0.6875 C 0.566406 -0.539062 0.679688 -0.421875 0.828125 -0.328125 C 0.972656 -0.242188 1.128906 -0.203125 1.296875 -0.203125 C 1.421875 -0.203125 1.539062 -0.226562 1.65625 -0.28125 C 1.78125 -0.332031 1.894531 -0.40625 2 -0.5 L 2 -0.1875 C 1.894531 -0.113281 1.78125 -0.0546875 1.65625 -0.015625 C 1.539062 0.0234375 1.421875 0.046875 1.296875 0.046875 C 1.097656 0.046875 0.90625 -0.00390625 0.71875 -0.109375 C 0.53125 -0.210938 0.378906 -0.351562 0.265625 -0.53125 C 0.148438 -0.71875 0.09375 -0.921875 0.09375 -1.140625 C 0.09375 -1.359375 0.144531 -1.5625 0.25 -1.75 C 0.363281 -1.9375 0.515625 -2.082031 0.703125 -2.1875 C 0.890625 -2.289062 1.085938 -2.34375 1.296875 -2.34375 C 1.429688 -2.34375 1.5625 -2.320312 1.6875 -2.28125 C 1.8125 -2.238281 1.914062 -2.1875 2 -2.125 Z M 2 -1.796875 "/></g></g></g><g clip-path="url(#0f164df934)"><g fill="#402978" fill-opacity="1"><g transform="translate(72.379078, 33.401648)"><g><path d="M 0.328125 -2.3125 L 0.90625 -1.28125 L 1.5 -2.3125 L 1.796875 -2.3125 L 1.03125 -1 L 1.03125 0 L 0.78125 0 L 0.78125 -1 L 0.03125 -2.3125 Z M 0.328125 -2.3125 "/></g></g></g></g></svg>